<?xml version="1.0" encoding="utf-8"?>
<!-- Generator: Adobe Illustrator 23.0.3, SVG Export Plug-In . SVG Version: 6.00 Build 0)  -->
<svg version="1.1" id="Layer_1" xmlns="http://www.w3.org/2000/svg" xmlns:xlink="http://www.w3.org/1999/xlink" x="0px" y="0px"
	 viewBox="0 0 609 157.92" style="enable-background:new 0 0 609 157.92;" xml:space="preserve">
<style type="text/css">
	.st0{fill:#FFD73E;}
	.st1{fill:#FFFFFF;}
	.st2{fill:#9FB23A;}
</style>
<g>
	<g>
		<path class="st0" d="M67.44,6.45c-2.4,0-4.77,0.64-6.85,1.84L6.85,39.31C2.63,41.75,0,46.3,0,51.18v62.05
			c0,4.88,2.63,9.43,6.85,11.87l53.74,31.03c4.16,2.4,9.54,2.4,13.7,0l53.74-31.03c4.23-2.44,6.85-6.99,6.85-11.87V51.18
			c0-4.88-2.62-9.43-6.85-11.87L74.29,8.28C72.21,7.08,69.84,6.45,67.44,6.45z"/>
		<rect x="55.8" y="52.43" width="23.23" height="4"/>
		<path d="M71.16,77.07l0,0.05l7.63,7.62c0.02,0.02,0.01,0.05-0.02,0.05H56.1c-0.02,0-0.04-0.03-0.02-0.05l7.63-7.62l0-0.05H71.16z
			 M86.2,92.13H48.69c-0.01,0-0.01,0-0.02,0.01l-7.68,7.66c-0.02,0.02-0.01,0.05,0.02,0.05h52.86c0.02,0,0.04-0.03,0.02-0.05
			l-7.68-7.66C86.21,92.14,86.2,92.13,86.2,92.13z M40.18,114.91h54.53c0.02,0,0.03-0.01,0.03-0.03v-7.66
			c0-0.02-0.01-0.03-0.03-0.03H40.18c-0.02,0-0.03,0.01-0.03,0.03v7.66C40.15,114.89,40.16,114.91,40.18,114.91z M67.45,137.99
			l27.17-15.69c0.02-0.01,0.01-0.05-0.01-0.05H40.27c-0.03,0-0.04,0.04-0.01,0.05l27.17,15.69C67.44,138,67.45,138,67.45,137.99z
			 M54.88,30.4l-5.94,3.43c-0.01,0-0.01,0.01-0.01,0.02V52.4c0,0.02,0.01,0.03,0.03,0.03h14.71c0.02,0,0.03,0.01,0.03,0.03
			l0.02,17.24c0,0.02,0.01,0.03,0.03,0.03h7.4c0.02,0,0.03-0.01,0.03-0.03l0.02-17.24c0-0.02,0.01-0.03,0.03-0.03h14.72
			c0.02,0,0.03-0.01,0.03-0.03V33.85c0-0.01-0.01-0.02-0.01-0.02L80,30.4c-0.02-0.01-0.02-0.03-0.01-0.04l25.38-25.38
			c1.1-1.1,1.27-2.91,0.22-4.05c-1.1-1.2-2.96-1.23-4.1-0.09l-26.6,26.6c-0.01,0.01-0.02,0.01-0.03,0l-7.41-4.28
			c-0.01,0-0.02,0-0.03,0l-7.41,4.28c-0.01,0.01-0.02,0-0.03,0L33.46,0.91c-0.88-0.88-2.25-1.19-3.35-0.61
			c-1.8,0.95-2.04,3.23-0.73,4.55l25.51,25.51C54.9,30.37,54.9,30.39,54.88,30.4z"/>
		<path class="st1" d="M123.72,105.27h-22.86c-0.95,0-1.86-0.38-2.53-1.05L72.22,78.17c-0.67-0.67-1.05-1.59-1.05-2.54l0.02-19.62
			c0-1.98,1.61-3.58,3.58-3.58h22.86c0.95,0,1.86,0.38,2.53,1.05l26.11,26.05c0.67,0.67,1.05,1.59,1.05,2.54l-0.02,19.62
			C127.3,103.67,125.7,105.27,123.72,105.27z"/>
		<path class="st1" d="M34.02,105.27H11.16c-1.98,0-3.58-1.6-3.58-3.58L7.56,82.07c0-0.95,0.38-1.87,1.05-2.54l26.11-26.05
			c0.67-0.67,1.58-1.05,2.53-1.05h22.86c1.98,0,3.58,1.6,3.58,3.58l0.02,19.62c0,0.95-0.38,1.87-1.05,2.54l-26.11,26.05
			C35.88,104.9,34.97,105.27,34.02,105.27z"/>
		<path class="st0" d="M104.77,99.97h9.5c4.27,0,7.73-3.46,7.74-7.73l0.01-6.24c0-2.06-0.82-4.03-2.27-5.48L99.18,60
			c-1.45-1.45-3.42-2.26-5.46-2.26h-9.5c-4.27,0-7.73,3.46-7.74,7.73l-0.01,6.24c0,2.06,0.82,4.03,2.27,5.48l20.56,20.51
			C100.76,99.16,102.72,99.97,104.77,99.97z"/>
		<path class="st0" d="M20.61,99.97h9.5c2.05,0,4.01-0.81,5.46-2.26l20.56-20.51c1.46-1.45,2.27-3.43,2.27-5.48l-0.01-6.24
			c0-4.27-3.47-7.73-7.74-7.73h-9.5c-2.05,0-4.01,0.81-5.46,2.26L15.14,80.51c-1.46,1.45-2.27,3.43-2.27,5.48l0.01,6.24
			C12.88,96.51,16.34,99.97,20.61,99.97z"/>
	</g>
</g>
<g>
	<path class="st2" d="M170.89,56.48H179v48.21h-8.11V56.48z"/>
	<path class="st2" d="M190.76,69.05h5.88l0.98,2.64c1.26-0.68,2.6-1.28,4.02-1.82c1.22-0.45,2.6-0.87,4.14-1.25
		c1.54-0.38,3.14-0.57,4.78-0.57c1.98,0,3.62,0.32,4.92,0.95c1.29,0.63,2.3,1.58,3.02,2.84c0.56-0.32,1.29-0.69,2.2-1.12
		c0.9-0.43,1.91-0.84,3.04-1.23s2.37-0.73,3.72-1.01c1.35-0.28,2.77-0.42,4.26-0.42c3.29,0,5.69,0.93,7.21,2.79
		c1.52,1.86,2.28,4.72,2.28,8.6v25.27h-8.04V80.97c0-1.08-0.07-1.99-0.2-2.72c-0.13-0.73-0.39-1.33-0.78-1.79
		c-0.38-0.46-0.9-0.79-1.57-1c-0.66-0.2-1.53-0.3-2.61-0.3c-0.85,0-1.68,0.05-2.48,0.15c-0.8,0.1-1.55,0.23-2.26,0.39
		c-0.71,0.16-1.35,0.33-1.92,0.51c-0.57,0.18-1.06,0.34-1.47,0.47c0.07,0.59,0.11,1.21,0.14,1.86c0.02,0.65,0.03,1.18,0.03,1.59
		v24.56h-8.04V80.97c0-1.08-0.07-1.99-0.22-2.72c-0.15-0.73-0.41-1.33-0.79-1.79c-0.38-0.46-0.89-0.79-1.53-1
		c-0.64-0.2-1.46-0.3-2.44-0.3c-1.12,0-2.17,0.08-3.15,0.25c-0.98,0.17-1.85,0.34-2.61,0.52c-0.9,0.23-1.72,0.47-2.46,0.74v28.01
		h-8.04V69.05z"/>
	<path class="st2" d="M252.35,52.19h8.04v29.87h5.27l9.29-13.01h9.16l-12.16,16.62l12.23,19.02h-9.16l-10.31-15.98h-4.32v15.98
		h-8.04V52.19z"/>
	<path class="st2" d="M288.66,86.48c0-3.72,0.48-6.77,1.45-9.16c0.97-2.39,2.25-4.27,3.85-5.64c1.6-1.37,3.42-2.33,5.47-2.85
		c2.05-0.53,4.16-0.79,6.32-0.79c2.72,0,4.98,0.37,6.77,1.12c1.79,0.74,3.21,1.79,4.27,3.13c1.06,1.34,1.8,2.94,2.23,4.81
		c0.43,1.87,0.64,3.93,0.64,6.18c0,1.06-0.04,2.15-0.12,3.28c-0.08,1.13-0.19,2.29-0.32,3.48h-22.33c0.02,1.6,0.2,2.94,0.52,4.04
		c0.33,1.09,0.87,1.98,1.62,2.67c0.75,0.69,1.76,1.18,3.01,1.49s2.81,0.46,4.68,0.46c1.58,0,3.05-0.04,4.43-0.12
		c1.37-0.08,2.58-0.17,3.62-0.29c1.22-0.11,2.32-0.26,3.31-0.44v5.61c-1.15,0.43-2.4,0.81-3.75,1.15c-1.15,0.29-2.49,0.56-4.02,0.79
		c-1.53,0.24-3.16,0.35-4.9,0.35c-2.66,0-5.02-0.33-7.09-1s-3.82-1.76-5.25-3.28c-1.43-1.52-2.52-3.51-3.28-5.96
		C289.04,93.04,288.66,90.04,288.66,86.48z M312.28,84.01v-1.29c0-1.36-0.08-2.54-0.25-3.54c-0.17-1.01-0.51-1.84-1.03-2.49
		c-0.52-0.66-1.25-1.14-2.2-1.46c-0.95-0.32-2.21-0.48-3.78-0.48c-1.69,0-3.07,0.2-4.14,0.59c-1.07,0.4-1.9,0.98-2.5,1.76
		c-0.6,0.78-1,1.75-1.22,2.9s-0.32,2.49-0.32,4H312.28z"/>
	<path class="st2" d="M327.75,69.05h6.95l0.48,3.89c1.76-1.15,3.73-2.09,5.92-2.84c2.18-0.74,4.64-1.18,7.36-1.32l-0.07,8.31
		c-2.82,0.05-5.25,0.19-7.31,0.42c-2.06,0.24-3.82,0.65-5.29,1.23v25.95h-8.04V69.05z"/>
	<path class="st2" d="M353.63,97.83c0.99,0.23,2.09,0.43,3.31,0.61c1.04,0.16,2.26,0.29,3.67,0.41c1.41,0.11,2.96,0.17,4.65,0.17
		c1.85,0,3.31-0.07,4.39-0.2s1.9-0.37,2.45-0.69c0.55-0.33,0.91-0.77,1.06-1.33c0.16-0.56,0.24-1.27,0.24-2.13
		c0-0.45-0.03-0.86-0.08-1.23c-0.06-0.37-0.19-0.71-0.41-1.01c-0.21-0.3-0.53-0.56-0.95-0.78c-0.42-0.21-0.97-0.38-1.67-0.49
		l-7.47-1.39c-1.71-0.29-3.15-0.69-4.32-1.18c-1.17-0.5-2.11-1.15-2.82-1.98c-0.71-0.82-1.22-1.84-1.52-3.04
		c-0.3-1.2-0.46-2.67-0.46-4.41c0-3.74,1.24-6.53,3.73-8.36c2.49-1.84,6.04-2.75,10.66-2.75c1.62,0,3.11,0.1,4.48,0.29
		c1.36,0.19,2.55,0.41,3.56,0.66c1.17,0.27,2.24,0.58,3.21,0.92v5.77c-1.08-0.18-2.21-0.34-3.38-0.47c-1.01-0.11-2.15-0.23-3.4-0.34
		s-2.52-0.17-3.8-0.17c-1.46,0-2.68,0.06-3.65,0.19s-1.73,0.33-2.3,0.62c-0.56,0.29-0.96,0.67-1.18,1.13
		c-0.23,0.46-0.34,1.04-0.34,1.74c0,0.54,0.04,1.02,0.13,1.45c0.09,0.43,0.28,0.81,0.57,1.15c0.29,0.34,0.7,0.63,1.22,0.88
		c0.52,0.25,1.22,0.45,2.09,0.61l7.74,1.45c1.51,0.29,2.79,0.68,3.83,1.15c1.05,0.47,1.9,1.11,2.55,1.92
		c0.65,0.81,1.13,1.84,1.42,3.09c0.29,1.25,0.44,2.78,0.44,4.61c0,1.73-0.17,3.28-0.52,4.66c-0.35,1.37-1.05,2.53-2.11,3.48
		c-1.06,0.94-2.56,1.67-4.49,2.18c-1.94,0.51-4.49,0.76-7.67,0.76c-1.76,0-3.41-0.12-4.97-0.35c-1.55-0.24-2.92-0.5-4.09-0.79
		c-1.37-0.34-2.65-0.72-3.82-1.15V97.83z"/>
	<path class="st2" d="M408.12,56.48h8.11v40.68h19.93v7.53h-28.04V56.48z"/>
	<path class="st2" d="M440.83,86.48c0-3.72,0.48-6.77,1.45-9.16c0.97-2.39,2.25-4.27,3.85-5.64c1.6-1.37,3.42-2.33,5.47-2.85
		c2.05-0.53,4.16-0.79,6.32-0.79c2.72,0,4.98,0.37,6.77,1.12c1.79,0.74,3.21,1.79,4.27,3.13c1.06,1.34,1.8,2.94,2.23,4.81
		c0.43,1.87,0.64,3.93,0.64,6.18c0,1.06-0.04,2.15-0.12,3.28c-0.08,1.13-0.19,2.29-0.32,3.48h-22.33c0.02,1.6,0.2,2.94,0.52,4.04
		c0.33,1.09,0.87,1.98,1.62,2.67c0.75,0.69,1.76,1.18,3.01,1.49s2.81,0.46,4.68,0.46c1.58,0,3.05-0.04,4.43-0.12
		c1.37-0.08,2.58-0.17,3.62-0.29c1.22-0.11,2.32-0.26,3.31-0.44v5.61c-1.15,0.43-2.4,0.81-3.75,1.15c-1.15,0.29-2.49,0.56-4.02,0.79
		c-1.53,0.24-3.16,0.35-4.9,0.35c-2.66,0-5.02-0.33-7.09-1s-3.82-1.76-5.25-3.28c-1.43-1.52-2.52-3.51-3.28-5.96
		C441.2,93.04,440.83,90.04,440.83,86.48z M464.44,84.01v-1.29c0-1.36-0.08-2.54-0.25-3.54c-0.17-1.01-0.51-1.84-1.03-2.49
		c-0.52-0.66-1.25-1.14-2.2-1.46c-0.95-0.32-2.21-0.48-3.78-0.48c-1.69,0-3.07,0.2-4.14,0.59c-1.07,0.4-1.9,0.98-2.5,1.76
		c-0.6,0.78-1,1.75-1.22,2.9s-0.32,2.49-0.32,4H464.44z"/>
	<path class="st2" d="M484.54,63c-0.92,0-1.68-0.07-2.28-0.2s-1.08-0.37-1.45-0.71c-0.37-0.34-0.63-0.8-0.78-1.39
		c-0.15-0.59-0.22-1.34-0.22-2.26s0.07-1.68,0.22-2.28c0.15-0.6,0.41-1.08,0.78-1.44c0.37-0.36,0.86-0.61,1.45-0.74
		c0.6-0.13,1.36-0.2,2.28-0.2s1.68,0.07,2.28,0.2c0.6,0.14,1.08,0.38,1.44,0.74c0.36,0.36,0.61,0.84,0.74,1.44
		c0.13,0.6,0.2,1.36,0.2,2.28s-0.07,1.68-0.2,2.26c-0.14,0.59-0.38,1.05-0.74,1.39c-0.36,0.34-0.84,0.57-1.44,0.71
		S485.47,63,484.54,63z M480.52,69.05h8.04v35.64h-8.04V69.05z"/>
	<path class="st2" d="M510.52,105.73c-2,0-3.77-0.33-5.29-0.98c-1.52-0.65-2.79-1.72-3.8-3.19c-1.01-1.48-1.79-3.41-2.31-5.79
		c-0.53-2.39-0.81-5.3-0.83-8.75c-0.04-3.42,0.21-6.34,0.76-8.75c0.55-2.41,1.35-4.38,2.4-5.9c1.05-1.52,2.33-2.62,3.85-3.31
		c1.52-0.69,3.24-1.03,5.15-1.03c1.76,0,3.36,0.14,4.8,0.41c1.44,0.27,2.69,0.56,3.75,0.88c1.24,0.38,2.33,0.8,3.28,1.25V52.19h8.04
		v52.5h-6.93l-0.47-2.84c-1.01,0.72-2.16,1.37-3.45,1.96c-1.1,0.5-2.42,0.94-3.94,1.33C514.02,105.54,512.35,105.73,510.52,105.73z
		 M513.36,98.54c1.17,0,2.29-0.08,3.36-0.25c1.07-0.17,2.02-0.37,2.86-0.59c0.97-0.25,1.87-0.54,2.7-0.88V76.44
		c-0.92-0.23-1.9-0.44-2.94-0.64c-0.88-0.16-1.89-0.3-3.02-0.44c-1.14-0.13-2.3-0.2-3.5-0.2c-1.24,0-2.25,0.21-3.04,0.63
		c-0.79,0.42-1.41,1.11-1.86,2.08c-0.45,0.97-0.76,2.24-0.93,3.82c-0.17,1.58-0.25,3.52-0.25,5.84c0,2,0.08,3.71,0.24,5.1
		c0.16,1.4,0.47,2.53,0.95,3.41c0.47,0.88,1.14,1.52,2.01,1.91S511.94,98.54,513.36,98.54z"/>
	<path class="st2" d="M539.04,86.48c0-3.72,0.48-6.77,1.45-9.16c0.97-2.39,2.25-4.27,3.85-5.64c1.6-1.37,3.42-2.33,5.47-2.85
		c2.05-0.53,4.16-0.79,6.32-0.79c2.72,0,4.98,0.37,6.77,1.12c1.79,0.74,3.21,1.79,4.27,3.13c1.06,1.34,1.8,2.94,2.23,4.81
		c0.43,1.87,0.64,3.93,0.64,6.18c0,1.06-0.04,2.15-0.12,3.28c-0.08,1.13-0.19,2.29-0.32,3.48h-22.33c0.02,1.6,0.2,2.94,0.52,4.04
		c0.33,1.09,0.87,1.98,1.62,2.67c0.75,0.69,1.76,1.18,3.01,1.49s2.81,0.46,4.68,0.46c1.58,0,3.05-0.04,4.43-0.12
		c1.37-0.08,2.58-0.17,3.62-0.29c1.22-0.11,2.32-0.26,3.31-0.44v5.61c-1.15,0.43-2.4,0.81-3.75,1.15c-1.15,0.29-2.49,0.56-4.02,0.79
		c-1.53,0.24-3.16,0.35-4.9,0.35c-2.66,0-5.02-0.33-7.09-1s-3.82-1.76-5.25-3.28c-1.43-1.52-2.52-3.51-3.28-5.96
		C539.41,93.04,539.04,90.04,539.04,86.48z M562.65,84.01v-1.29c0-1.36-0.08-2.54-0.25-3.54c-0.17-1.01-0.51-1.84-1.03-2.49
		c-0.52-0.66-1.25-1.14-2.2-1.46c-0.95-0.32-2.21-0.48-3.78-0.48c-1.69,0-3.07,0.2-4.14,0.59c-1.07,0.4-1.9,0.98-2.5,1.76
		c-0.6,0.78-1,1.75-1.22,2.9s-0.32,2.49-0.32,4H562.65z"/>
	<path class="st2" d="M578.13,69.05h5.88l0.98,2.64c1.24-0.68,2.59-1.28,4.06-1.82c1.26-0.45,2.72-0.87,4.36-1.25
		c1.65-0.38,3.4-0.57,5.28-0.57c3.52,0,6.12,0.92,7.79,2.75c1.68,1.84,2.52,4.71,2.52,8.63v25.27h-8.04V80.4
		c0-0.92-0.06-1.72-0.19-2.38c-0.12-0.66-0.39-1.2-0.79-1.62c-0.4-0.42-0.99-0.73-1.75-0.93c-0.76-0.2-1.79-0.3-3.07-0.3
		c-1.35,0-2.57,0.08-3.67,0.25c-1.1,0.17-2.04,0.34-2.83,0.52c-0.92,0.23-1.75,0.47-2.49,0.74v28.01h-8.04V69.05z"/>
</g>
</svg>
